<svg xmlns="http://www.w3.org/2000/svg" viewBox="0 0 800 600" width="800" height="600">
  <!-- Fondo -->
  <rect width="800" height="600" fill="#f8f9fa"/>
  
  <!-- Servidor principal -->
  <rect x="300" y="150" width="200" height="300" rx="10" ry="10" fill="#ffffff" stroke="#0170B9" stroke-width="3"/>
  
  <!-- Detalles del servidor -->
  <rect x="320" y="180" width="160" height="20" rx="5" ry="5" fill="#e6f3fa"/>
  <rect x="320" y="210" width="160" height="20" rx="5" ry="5" fill="#e6f3fa"/>
  <rect x="320" y="240" width="160" height="20" rx="5" ry="5" fill="#e6f3fa"/>
  
  <!-- Luces del servidor -->
  <circle cx="340" cy="300" r="8" fill="#4CAF50"/>
  <circle cx="340" cy="330" r="8" fill="#FFC107"/>
  <circle cx="340" cy="360" r="8" fill="#0170B9"/>
  
  <!-- Conexiones -->
  <path d="M300,200 L200,150 L100,200" stroke="#0170B9" stroke-width="3" fill="none"/>
  <path d="M300,250 L200,300 L100,250" stroke="#0170B9" stroke-width="3" fill="none"/>
  <path d="M500,200 L600,150 L700,200" stroke="#0170B9" stroke-width="3" fill="none"/>
  <path d="M500,250 L600,300 L700,250" stroke="#0170B9" stroke-width="3" fill="none"/>
  
  <!-- Nodos -->
  <circle cx="100" cy="200" r="20" fill="#ffffff" stroke="#0170B9" stroke-width="3"/>
  <circle cx="100" cy="250" r="20" fill="#ffffff" stroke="#0170B9" stroke-width="3"/>
  <circle cx="700" cy="200" r="20" fill="#ffffff" stroke="#0170B9" stroke-width="3"/>
  <circle cx="700" cy="250" r="20" fill="#ffffff" stroke="#0170B9" stroke-width="3"/>
  
  <!-- Nubes -->
  <ellipse cx="200" cy="150" rx="40" ry="25" fill="#ffffff" stroke="#0170B9" stroke-width="2"/>
  <ellipse cx="600" cy="150" rx="40" ry="25" fill="#ffffff" stroke="#0170B9" stroke-width="2"/>
  
  <!-- Base de datos -->
  <ellipse cx="200" cy="300" rx="30" ry="15" fill="#ffffff" stroke="#0170B9" stroke-width="2"/>
  <path d="M170,300 L170,350 C170,365 230,365 230,350 L230,300" fill="#ffffff" stroke="#0170B9" stroke-width="2"/>
  <ellipse cx="200" cy="350" rx="30" ry="15" fill="#ffffff" stroke="#0170B9" stroke-width="2"/>
  
  <!-- Gráfico -->
  <ellipse cx="600" cy="300" rx="30" ry="15" fill="#ffffff" stroke="#0170B9" stroke-width="2"/>
  <path d="M570,300 L570,350 C570,365 630,365 630,350 L630,300" fill="#ffffff" stroke="#0170B9" stroke-width="2"/>
  <ellipse cx="600" cy="350" rx="30" ry="15" fill="#ffffff" stroke="#0170B9" stroke-width="2"/>
  <path d="M580,325 L590,315 L600,330 L610,310 L620,320" stroke="#0170B9" stroke-width="2" fill="none"/>
  
  <!-- Logo Oracle -->
  <rect x="350" y="400" width="100" height="30" rx="5" ry="5" fill="#f44336"/>
  <text x="360" y="422" font-family="Arial" font-size="16" font-weight="bold" fill="#ffffff">ORACLE</text>
</svg> 