<svg xmlns="http://www.w3.org/2000/svg" viewBox="0 0 24 24" width="24" height="24" fill="none" stroke="#0170B9" stroke-width="2" stroke-linecap="round" stroke-linejoin="round">
  <path d="M5 18h14a2 2 0 0 0 2-2v-2a2 2 0 0 0-2-2H5a2 2 0 0 0-2 2v2a2 2 0 0 0 2 2z"></path>
  <path d="M5 10h14a2 2 0 0 0 2-2V6a2 2 0 0 0-2-2H5a2 2 0 0 0-2 2v2a2 2 0 0 0 2 2z"></path>
  <line x1="8" y1="6" x2="8" y2="6"></line>
  <line x1="8" y1="14" x2="8" y2="14"></line>
  <path d="M19 22v-4"></path>
  <path d="M5 22v-4"></path>
  <path d="M12 22v-4"></path>
  <path d="M12 2v2"></path>
</svg> 